<?xml version="1.0" standalone="no"?>
<!DOCTYPE svg PUBLIC "-//W3C//DTD SVG 20010904//EN"
 "http://www.w3.org/TR/2001/REC-SVG-20010904/DTD/svg10.dtd">
<svg version="1.0" xmlns="http://www.w3.org/2000/svg"
 width="326.000000pt" height="326.000000pt" viewBox="0 0 326.000000 326.000000"
 preserveAspectRatio="xMidYMid meet">
<metadata>
Created by potrace 1.14, written by Peter Selinger 2001-2017
</metadata>
<g transform="translate(0.000000,326.000000) scale(0.100000,-0.100000)"
fill="#000000" stroke="none">
<path d="M590 2043 c-70 -63 -27 -164 68 -163 46 1 93 52 86 94 -8 51 -16 67
-44 81 -43 22 -76 18 -110 -12z"/>
<path d="M0 1625 l0 -415 23 -1 c73 -3 131 1 136 9 3 6 5 78 4 161 l-1 151
162 0 161 0 0 73 0 72 -162 3 -162 2 0 103 -1 102 180 0 c99 0 180 2 181 5 1
3 2 38 2 78 l2 72 -262 0 -263 0 0 -415z"/>
<path d="M879 1951 c-1 -3 -2 -26 -3 -51 -3 -64 -13 -88 -46 -105 -16 -8 -33
-15 -37 -14 -29 5 -33 -4 -33 -69 l0 -68 50 2 c30 0 50 -3 50 -10 1 -6 2 -81
3 -166 2 -161 7 -181 53 -228 35 -34 130 -52 192 -36 20 6 22 13 22 68 l0 62
-32 2 c-51 4 -66 11 -74 35 -9 26 -9 239 -1 261 4 11 19 14 56 12 28 -1 52 1
53 6 2 4 2 36 0 71 l-4 64 -49 -3 c-27 -1 -52 3 -56 8 -3 6 -6 45 -7 87 l-1
76 -67 1 c-38 0 -69 -2 -69 -5z"/>
<path d="M1432 1787 c-18 -5 -44 -21 -58 -34 -29 -27 -32 -27 -37 7 -4 23 -8
24 -68 25 -35 0 -68 -3 -74 -6 -8 -6 -13 -463 -6 -559 1 -12 15 -15 72 -13 39
1 73 4 76 7 3 3 6 84 6 180 0 195 7 225 57 251 59 30 128 5 148 -53 4 -15 8
-107 8 -204 l-1 -176 40 -4 c22 -2 57 -1 79 2 l38 5 0 202 c0 131 -4 215 -12
240 -17 51 -54 99 -93 120 -38 19 -128 25 -175 10z"/>
<path d="M1947 1786 c-144 -54 -220 -213 -178 -377 22 -86 71 -148 149 -186
49 -24 69 -28 142 -28 93 1 123 12 185 67 36 31 65 76 65 100 0 12 -118 56
-124 46 -1 -1 -10 -16 -20 -31 -34 -55 -122 -69 -189 -30 -39 23 -78 89 -60
101 7 4 98 7 203 7 210 -1 208 -1 205 60 -6 123 -55 209 -148 257 -53 27 -175
35 -230 14z m130 -115 c30 -1 81 -49 89 -83 l6 -28 -130 0 -130 0 6 23 c16 52
79 100 121 92 9 -2 26 -4 38 -4z"/>
<path d="M2470 1786 c-86 -38 -132 -107 -125 -184 10 -99 60 -141 207 -172 65
-13 88 -30 88 -65 0 -47 -74 -71 -129 -42 -14 6 -32 26 -42 42 -9 17 -21 29
-27 28 -5 -1 -20 -4 -33 -7 -88 -16 -94 -26 -56 -88 45 -75 136 -115 241 -106
110 9 186 77 194 172 8 100 -58 170 -183 195 -117 24 -142 47 -103 96 36 46
130 25 149 -34 6 -17 129 7 129 25 0 42 -46 101 -100 129 -41 22 -171 29 -210
11z"/>
<path d="M2943 1789 c-70 -21 -133 -109 -133 -185 0 -38 29 -92 64 -119 36
-27 69 -39 150 -55 57 -12 86 -34 86 -66 0 -31 -36 -54 -83 -54 -29 0 -46 7
-68 29 -16 16 -29 37 -29 45 0 17 -22 15 -75 -4 -22 -8 -30 -10 -45 -10 -38 0
26 -111 84 -145 83 -49 222 -43 294 11 87 67 95 194 16 264 -42 36 -65 46
-152 65 -75 15 -101 35 -94 71 13 69 140 56 164 -17 6 -17 128 10 128 28 0 41
-48 101 -105 131 -36 18 -157 25 -202 11z"/>
<path d="M575 1780 c-9 -14 -4 -570 5 -571 6 0 24 -1 40 -1 17 0 48 1 70 1
l40 1 0 288 0 287 -76 0 c-42 0 -77 -2 -79 -5z"/>
</g>
</svg>
